<svg width="120" height="150" xmlns="http://www.w3.org/2000/svg"><g><path id="svg_1" fill="#fff" d="m107.58,38.77l0,0a40.15,40.15 0 0 0 -37.75,-22.41l0,-0.09a6.19,6.19 0 0 1 -7.33,-4.8a6.19,6.19 0 0 1 4.8,-7.33a6.17,6.17 0 0 1 2.5,0a32.82,32.82 0 0 0 -20.9,-2.5a33,33 0 0 0 -25.53,39a33,33 0 0 0 3.07,8.56a33.06,33.06 0 0 1 -10,-10.49a56.85,56.85 0 0 0 -14,36.52l0,24.54a50.73,50.73 0 0 0 50.73,50.73l17.78,0a50.73,50.73 0 0 0 50.64,-50.73l0,-24.49a56.85,56.85 0 0 0 -14.01,-36.51z"/><path id="svg_2" fill="#45abde" d="m87.56,61.27c-14.14,0 -28.43,8.17 -28.43,8.17l8.57,-10.34s-8.23,8.59 -26.66,8.59s-24.16,-4.29 -24.16,-4.29l0,31a29.24,29.24 0 0 0 26.78,29.13a2.82,2.82 0 0 1 0.13,-0.28l3.48,-6c1,-1.63 2.5,-1.63 3.46,0l3.48,6c0.07,0.13 0.13,0.27 0.19,0.4l15.15,0c0.06,-0.14 0.12,-0.28 0.19,-0.4l3.48,-6c1,-1.63 2.5,-1.63 3.46,0l3.48,6a2.82,2.82 0 0 1 0.13,0.28a29.24,29.24 0 0 0 26.78,-29.13l0,-31s-5.37,-2.13 -19.51,-2.13z"/><circle id="svg_3" fill="#25434e" r="6.04" cy="87.5" cx="44.08"/><circle id="svg_4" fill="#25434e" r="6.04" cy="87.5" cx="79.87"/></g></svg>